<svg xmlns="http://www.w3.org/2000/svg" id="Layer_2" viewBox="0 0 18 24.12"><defs><style>.cls-2{fill:#0ba5ec;fill-rule:evenodd;}</style></defs><g id="Layer_1-2"><g><path class="cls-2" d="M5.9,5.3h-.38v1.91h.38v-1.91Z"/><path class="cls-2" d="M7.52,5.3h-.38v1.91h.38v-1.91Z"/><path class="cls-2" d="M9.74,1.67l-.39-.65L2.9,4.65l.39,.65L9.74,1.67Z"/><path class="cls-2" d="M9.7,1.67l.39-.65,6.45,3.64-.39,.65L9.7,1.67Z"/><path class="cls-2" d="M17.68,5.31v-.75H0v.75H17.68Z"/><path class="cls-2" d="M11.68,15.97V4.79h.77v11.73c-.21-.23-.47-.4-.77-.54Z"/><path class="cls-2" d="M9.36,15.78V0h.77V15.87c-.22-.1-.75-.09-.77-.09Z"/><path class="cls-2" d="M2.03,17.35c-.94-.68-1.57-1.77-1.57-3,0-.65,.18-1.3,.51-1.86H7.58c.34,.56,.51,1.21,.51,1.86,0,.57-.08,1.1-.31,1.58-.5-.47-1.24-.67-1.98-.67-1.32,0-2.45,.8-2.75,2-.1,0-.17-.02-.27-.02-.25,0-.5,.05-.75,.11Z"/><path class="cls-2" d="M5.27,8.05H3.27v1.96h2v-1.96Z"/><path class="cls-2" d="M3.02,8.05H1.02v1.96H3.02v-1.96Z"/><path class="cls-2" d="M3.02,10.24H1.02v1.96H3.02v-1.96Z"/><path class="cls-2" d="M5.27,10.24H3.27v1.96h2v-1.96Z"/><path class="cls-2" d="M7.52,10.24h-2v1.96h2v-1.96Z"/><path class="cls-2" d="M7.52,7h-2v1.96h2v-1.96Z"/><path class="cls-2" d="M3.38,17.65c.27-1.13,1.32-1.98,2.57-1.98,.8,0,1.52,.35,2.01,.9,.42-.29,.93-.45,1.49-.45,1.45,0,2.63,1.15,2.63,2.57,0,.29-.05,.57-.14,.84,.32,.42,.52,.96,.52,1.53,0,1.42-1.18,2.57-2.63,2.57-.64,0-1.23-.22-1.68-.59-.48,.65-1.26,1.09-2.15,1.09-1.02,0-1.91-.57-2.35-1.4-.18,.04-.36,.06-.55,.06-1.45,0-2.64-1.15-2.64-2.57s1.18-2.57,2.64-2.57c.09,0,.19,0,.28,0Z"/></g></g><script xmlns=""/></svg>
